<?xml version="1.0" standalone="no"?>
<!DOCTYPE svg PUBLIC "-//W3C//DTD SVG 20010904//EN"
 "http://www.w3.org/TR/2001/REC-SVG-20010904/DTD/svg10.dtd">
<svg version="1.0" xmlns="http://www.w3.org/2000/svg"
 width="500.000000pt" height="108.000000pt" viewBox="0 0 500.000000 108.000000"
 preserveAspectRatio="xMidYMid meet">

<g transform="translate(0.000000,108.000000) scale(0.100000,-0.100000)"
fill="#000000" stroke="none">
<path d="M3811 913 c7 -12 15 -20 18 -17 3 2 -3 12 -13 22 -17 16 -18 16 -5
-5z"/>
<path d="M3880 896 c0 -2 11 -6 25 -8 13 -3 22 -1 19 3 -5 9 -44 13 -44 5z"/>
<path d="M3737 878 c-2 -7 -1 -22 4 -33 6 -16 8 -14 8 13 1 33 -4 41 -12 20z"/>
<path d="M3830 855 c-7 -9 -11 -17 -9 -20 3 -2 10 5 17 15 14 24 10 26 -8 5z"/>
<path d="M3631 844 c0 -11 3 -14 6 -6 3 7 2 16 -1 19 -3 4 -6 -2 -5 -13z"/>
<path d="M1127 843 c-4 -3 -7 -73 -7 -155 0 -124 2 -148 15 -148 12 0 15 24
17 130 l3 130 47 -65 c26 -36 52 -65 58 -65 5 0 31 30 58 66 l47 66 3 -131 c4
-188 22 -168 22 24 0 85 -4 155 -9 155 -5 0 -33 -34 -63 -75 -29 -41 -56 -75
-59 -75 -3 0 -30 34 -59 75 -52 74 -60 81 -73 68z"/>
<path d="M1535 753 c-21 -54 -48 -124 -61 -155 -17 -43 -19 -58 -9 -58 7 0 21
23 31 50 l18 50 67 0 66 0 21 -50 c12 -27 26 -50 31 -50 6 0 11 1 11 3 0 17
-118 301 -126 304 -7 2 -28 -38 -49 -94z m99 -82 c-6 -7 -104 -6 -104 1 0 4 8
29 18 55 11 26 22 57 26 68 7 16 13 7 35 -50 15 -38 26 -72 25 -74z"/>
<path d="M1770 695 c0 -193 18 -212 22 -22 l3 132 85 -132 c47 -73 91 -133 98
-133 9 0 12 38 12 155 0 97 -4 155 -10 155 -6 0 -10 -50 -10 -131 0 -71 -3
-128 -7 -125 -5 2 -44 61 -88 130 -44 69 -86 125 -92 126 -10 0 -13 -37 -13
-155z"/>
<path d="M2090 695 c0 -97 4 -155 10 -155 6 0 10 58 10 155 0 97 -4 155 -10
155 -6 0 -10 -58 -10 -155z"/>
<path d="M2210 695 c0 -193 18 -212 22 -23 l3 133 48 -68 c26 -37 53 -67 60
-67 7 1 33 31 60 68 l47 67 0 -133 c0 -111 2 -132 15 -132 13 0 15 24 15 155
0 120 -3 155 -13 155 -7 0 -37 -34 -66 -75 -30 -41 -57 -75 -60 -74 -3 0 -30
34 -59 75 -29 40 -57 74 -63 74 -5 0 -9 -65 -9 -155z"/>
<path d="M2597 701 c-31 -81 -57 -151 -57 -155 0 -22 25 6 40 44 l18 45 66 3
67 3 21 -51 c11 -27 25 -50 30 -50 12 0 14 -6 -54 173 -29 75 -57 137 -63 137
-6 0 -37 -67 -68 -149z m97 37 c28 -74 26 -77 -39 -73 -28 1 -39 6 -37 16 5
26 45 130 48 126 2 -2 15 -33 28 -69z"/>
<path d="M2896 829 c-39 -31 -59 -76 -58 -135 1 -133 96 -193 225 -142 28 11
28 11 25 92 l-3 81 -77 3 c-49 2 -78 -1 -78 -8 0 -6 27 -10 65 -10 l65 0 0
-70 0 -69 -39 -11 c-114 -30 -197 85 -147 205 24 56 102 81 170 55 16 -6 26
-6 26 0 0 35 -132 42 -174 9z"/>
<path d="M3170 695 c0 -97 4 -155 10 -155 6 0 10 58 10 155 0 97 -4 155 -10
155 -6 0 -10 -58 -10 -155z"/>
<path d="M3334 831 c-53 -32 -80 -137 -53 -208 27 -71 96 -103 180 -83 28 7
49 18 49 25 0 11 -9 10 -47 -1 -35 -11 -55 -11 -85 -3 -93 25 -115 177 -36
244 29 24 38 27 90 23 32 -2 58 -1 58 3 0 25 -114 26 -156 0z"/>
<path d="M3890 815 c-11 -13 -8 -15 16 -14 17 1 22 3 11 6 -9 2 -15 9 -12 14
10 15 -1 10 -15 -6z"/>
<path d="M3657 799 c12 -12 24 -21 27 -18 2 2 -8 13 -22 23 l-27 19 22 -24z"/>
<path d="M3940 806 c0 -2 9 -6 20 -9 11 -3 18 -1 14 4 -5 9 -34 13 -34 5z"/>
<path d="M3792 788 c-14 -14 -16 -44 -3 -53 5 -3 12 -1 16 5 3 5 2 10 -4 10
-10 0 -9 19 2 38 10 15 5 16 -11 0z"/>
<path d="M3738 773 c6 -2 18 -2 25 0 6 3 1 5 -13 5 -14 0 -19 -2 -12 -5z"/>
<path d="M3590 744 c-11 -12 -10 -18 5 -32 18 -16 18 -16 6 1 -11 14 -11 20
-1 32 7 8 10 15 7 15 -2 0 -10 -7 -17 -16z"/>
<path d="M3846 731 c17 -4 36 -11 42 -15 8 -5 10 -2 6 8 -4 11 -18 16 -43 15
l-36 -1 31 -7z"/>
<path d="M3800 699 c0 -8 15 -28 32 -45 26 -23 28 -24 12 -4 -12 14 -26 34
-32 45 -9 15 -11 16 -12 4z"/>
<path d="M3648 693 c6 -2 18 -2 25 0 6 3 1 5 -13 5 -14 0 -19 -2 -12 -5z"/>
<path d="M3732 670 c0 -14 2 -19 5 -12 2 6 2 18 0 25 -3 6 -5 1 -5 -13z"/>
<path d="M3715 623 c-15 -12 -16 -14 -3 -10 11 4 18 0 20 -11 2 -9 6 -12 9 -7
4 6 4 18 0 27 -5 15 -8 15 -26 1z"/>
<path d="M3702 490 c0 -14 2 -19 5 -12 2 6 2 18 0 25 -3 6 -5 1 -5 -13z"/>
<path d="M3595 489 c-11 -16 -1 -19 13 -3 7 8 8 14 3 14 -5 0 -13 -5 -16 -11z"/>
<path d="M3785 489 c-4 -6 -5 -12 -2 -15 2 -3 7 2 10 11 7 17 1 20 -8 4z"/>
<path d="M3671 424 c0 -11 3 -14 6 -6 3 7 2 16 -1 19 -3 4 -6 -2 -5 -13z"/>
<path d="M3756 423 c-6 -14 -5 -15 5 -6 7 7 10 15 7 18 -3 3 -9 -2 -12 -12z"/>
<path d="M3690 385 c0 -27 3 -45 7 -42 7 8 6 77 -2 85 -3 3 -5 -16 -5 -43z"/>
<path d="M3610 390 c6 -11 13 -20 16 -20 2 0 0 9 -6 20 -6 11 -13 20 -16 20
-2 0 0 -9 6 -20z"/>
<path d="M2144 320 c-34 -14 -64 -59 -64 -97 0 -40 23 -88 45 -97 29 -11 80
-6 102 9 26 18 44 76 36 115 -10 53 -73 90 -119 70z m79 -38 c25 -22 23 -96
-3 -122 -20 -20 -65 -26 -86 -12 -42 28 -40 108 3 142 28 22 55 19 86 -8z"/>
<path d="M2553 306 c-24 -21 -26 -27 -18 -52 8 -21 21 -33 50 -42 50 -16 59
-25 50 -51 -9 -29 -69 -30 -87 -1 -15 23 -28 26 -28 7 0 -24 35 -47 72 -47 39
0 68 24 68 57 0 25 -14 37 -62 52 -52 17 -62 62 -17 76 20 7 59 -10 59 -25 0
-6 5 -10 10 -10 30 0 -6 45 -42 54 -20 4 -34 0 -55 -18z"/>
<path d="M2830 317 c-28 -14 -39 -59 -20 -83 7 -7 30 -19 52 -26 34 -10 39
-15 36 -37 -3 -22 -9 -26 -41 -29 -32 -3 -39 0 -44 17 -3 12 -12 21 -20 21
-11 0 -12 -4 -2 -22 16 -31 28 -38 65 -38 77 0 96 89 22 105 -18 4 -39 12 -45
17 -35 28 7 79 47 58 11 -6 20 -15 20 -20 0 -6 5 -10 10 -10 18 0 10 29 -12
44 -27 19 -35 19 -68 3z"/>
<path d="M3687 323 c-3 -5 -1 -17 4 -28 7 -17 8 -17 8 8 1 27 -4 34 -12 20z"/>
<path d="M2347 227 c-40 -99 -42 -107 -27 -107 5 0 12 11 16 25 6 23 11 25 60
25 49 0 54 -2 60 -25 3 -14 12 -25 19 -25 9 0 1 31 -27 100 -22 55 -45 100
-52 100 -6 0 -28 -42 -49 -93z m68 27 c23 -55 20 -64 -20 -64 -19 0 -35 3 -35
7 0 11 32 93 36 93 2 0 11 -16 19 -36z"/>
<path d="M2710 220 c0 -82 3 -100 15 -100 12 0 15 18 15 100 0 82 -3 100 -15
100 -12 0 -15 -18 -15 -100z"/>
<path d="M3702 200 c0 -19 2 -27 5 -17 2 9 2 25 0 35 -3 9 -5 1 -5 -18z"/>
</g>
</svg>
