<?xml version="1.0" standalone="no"?>
<!DOCTYPE svg PUBLIC "-//W3C//DTD SVG 20010904//EN"
 "http://www.w3.org/TR/2001/REC-SVG-20010904/DTD/svg10.dtd">
<svg version="1.0" xmlns="http://www.w3.org/2000/svg"
 width="500.000000pt" height="500.000000pt" viewBox="0 0 500.000000 500.000000"
 preserveAspectRatio="xMidYMid meet">

<g transform="translate(0.000000,500.000000) scale(0.100000,-0.100000)"
fill="#000000" stroke="none">
<path d="M0 2500 l0 -2500 2500 0 2500 0 0 2500 0 2500 -2500 0 -2500 0 0
-2500z m2491 1554 c29 -41 55 -71 59 -67 3 4 30 38 59 76 29 37 57 67 62 67
10 0 13 -269 3 -294 -3 -9 -10 -16 -16 -16 -5 0 -6 53 -2 138 l7 137 -54 -69
c-30 -38 -58 -71 -64 -72 -5 -2 -32 29 -60 69 l-50 72 -3 -132 c-2 -98 -6
-133 -15 -133 -9 0 -12 34 -9 143 2 78 5 148 8 155 6 20 19 8 75 -74z m-192
-93 c20 -134 21 -164 4 -148 -9 9 -51 295 -45 302 13 12 21 -18 41 -154z
m-131 -8 c42 -138 48 -163 35 -163 -3 0 -49 35 -101 78 -52 42 -107 87 -122
99 l-28 23 35 -113 c41 -128 41 -130 29 -137 -7 -4 -96 257 -96 282 0 20 30 1
136 -88 64 -53 117 -94 119 -92 1 1 -15 57 -36 123 -45 141 -42 125 -26 125 7
0 30 -57 55 -137z m767 85 c11 -84 25 -224 25 -255 0 -55 -18 -37 -25 25 l-7
59 -63 15 -64 15 -31 -44 c-28 -38 -57 -59 -48 -34 7 22 189 261 197 261 6 0
12 -19 16 -42z m310 -84 c37 -17 82 -61 72 -70 -3 -4 -22 7 -41 24 -67 59
-142 48 -192 -28 -35 -52 -39 -127 -8 -161 26 -29 67 -49 101 -49 25 0 33 8
56 55 l27 55 -23 14 c-12 8 -40 23 -61 33 -24 12 -35 23 -28 27 7 4 41 -9 77
-29 l65 -36 -36 -70 c-19 -39 -41 -72 -49 -75 -24 -10 -110 25 -139 55 -64 67
-35 195 58 252 38 23 77 24 121 3z m-1397 -138 c62 -49 112 -93 112 -98 0 -15
-17 -8 -55 22 -21 17 -42 30 -46 30 -5 0 -31 -14 -59 -31 l-50 -30 7 -60 c4
-41 2 -59 -6 -59 -6 0 -11 6 -11 13 0 6 -11 80 -24 162 -13 83 -22 153 -19
158 5 9 10 5 151 -107z m1612 -6 c0 -14 -170 -240 -181 -240 -17 0 -9 13 79
131 82 112 102 133 102 109z m-1851 -137 c55 -59 97 -111 94 -117 -4 -5 -49
35 -101 90 -82 87 -93 95 -89 69 3 -16 9 -58 13 -92 8 -76 19 -73 -156 -37
-21 4 -16 -5 35 -58 110 -115 127 -136 117 -142 -12 -7 -216 210 -208 223 3 5
35 3 78 -5 123 -24 116 -29 103 76 -11 87 -10 100 6 100 4 0 52 -48 108 -107z
m2031 -13 c32 -23 66 -77 55 -88 -4 -4 -11 2 -18 13 -6 11 -24 32 -40 48 -24
22 -38 27 -78 27 -44 0 -53 -4 -93 -42 -77 -75 -72 -156 14 -209 42 -26 50
-39 24 -39 -9 0 -39 22 -65 49 -44 43 -49 53 -49 92 0 68 52 139 122 169 34
14 93 5 128 -20z m-900 -104 c309 -63 574 -277 711 -573 69 -148 89 -248 89
-439 0 -183 -12 -258 -60 -374 -68 -164 -139 -270 -260 -384 -121 -114 -241
-184 -405 -235 -226 -71 -486 -59 -705 33 -270 114 -478 335 -580 615 -125
342 -48 748 194 1022 98 112 173 173 290 235 225 120 466 153 726 100z m-1406
-193 c-139 -182 -243 -439 -275 -680 -16 -117 -6 -350 21 -475 109 -517 478
-926 985 -1091 187 -61 437 -82 632 -53 324 48 593 183 824 415 219 221 355
478 410 781 21 115 16 390 -9 515 -40 197 -144 437 -248 573 -35 46 -41 62
-25 62 16 0 129 -177 175 -274 54 -111 100 -256 123 -379 26 -137 23 -419 -5
-549 -61 -282 -187 -521 -382 -722 -210 -217 -426 -341 -727 -417 -124 -32
-134 -33 -333 -32 -154 0 -224 4 -280 17 -273 60 -494 170 -693 343 -241 210
-408 503 -474 829 -26 128 -25 446 1 563 47 219 149 444 268 593 43 54 54 37
12 -19z m1554 -1959 c12 -8 20 -20 16 -25 -4 -6 -14 -3 -25 7 -27 24 -69 5
-69 -31 0 -26 13 -32 80 -37 28 -2 37 -8 45 -32 8 -25 6 -31 -18 -52 -16 -13
-41 -24 -56 -24 -29 0 -69 34 -53 44 5 3 15 -1 22 -9 28 -34 98 -6 86 33 -6
18 -15 22 -50 22 -57 0 -78 17 -74 60 2 25 10 38 28 47 33 17 41 16 68 -3z
m-636 -24 c28 -28 30 -36 25 -78 -7 -64 -53 -107 -106 -98 -69 11 -100 80 -66
146 34 66 98 79 147 30z m489 -99 c9 -50 13 -94 8 -96 -12 -8 -16 4 -29 85 -6
41 -14 83 -17 94 -3 12 -1 17 8 14 8 -3 20 -41 30 -97z m-285 -19 c24 -75 29
-102 19 -102 -7 0 -16 14 -20 30 -6 28 -9 30 -56 30 -43 0 -51 -3 -61 -25 -11
-26 -28 -34 -28 -14 0 21 95 189 105 186 5 -2 24 -49 41 -105z m188 92 c9 -8
16 -20 16 -25 0 -15 -17 -10 -24 7 -4 10 -16 14 -38 12 -29 -3 -33 -7 -33 -31
0 -26 6 -31 50 -45 45 -15 50 -20 53 -49 3 -29 -1 -35 -32 -49 -29 -14 -39
-15 -65 -5 -16 7 -32 20 -36 28 -9 26 4 28 25 5 24 -25 48 -28 74 -9 29 22 16
50 -29 62 -56 14 -65 22 -65 55 0 36 24 60 60 60 16 0 36 -7 44 -16z"/>
<path d="M2865 3982 c-51 -73 -51 -68 -17 -75 17 -3 41 -9 55 -12 l25 -7 -5
64 c-3 34 -8 68 -12 74 -3 7 -23 -12 -46 -44z"/>
<path d="M1723 3858 c3 -13 9 -44 12 -70 4 -27 11 -48 16 -48 5 0 28 11 50 25
l40 26 -55 44 c-62 51 -70 54 -63 23z"/>
<path d="M2521 3434 c-26 -19 -51 -71 -51 -109 0 -25 -14 -33 -25 -15 -4 6
-24 20 -47 31 -144 73 -233 -58 -122 -180 38 -42 41 -51 19 -51 -29 0 -123
-41 -149 -65 -53 -49 -23 -100 71 -119 56 -12 70 -11 129 5 36 10 82 27 100
38 40 24 40 22 14 -47 -11 -29 -20 -74 -20 -101 0 -45 -2 -49 -32 -62 -18 -7
-50 -14 -72 -14 -71 0 -105 71 -71 149 6 13 5 17 -3 12 -22 -14 -32 -76 -17
-112 24 -58 91 -78 162 -49 20 8 39 13 42 10 3 -3 0 -22 -6 -43 -6 -20 -21
-71 -33 -112 -30 -103 -50 -263 -50 -404 0 -100 -2 -117 -14 -107 -33 27 -39
67 -21 134 14 53 15 70 5 107 -28 103 -76 160 -136 160 -96 0 -85 -178 17
-278 19 -18 44 -35 56 -38 13 -4 23 -10 23 -14 0 -4 16 -31 35 -60 32 -48 36
-61 45 -163 17 -192 32 -297 42 -297 5 0 7 8 4 18 -9 27 -36 295 -43 423 -6
112 -5 117 16 128 11 7 48 36 81 65 56 50 63 53 125 59 38 4 91 18 125 33 150
67 174 263 29 240 -95 -15 -177 -101 -218 -228 -7 -20 -24 -49 -38 -65 -33
-35 -105 -93 -117 -93 -22 0 20 294 60 420 l26 83 28 -32 c17 -18 39 -31 53
-31 47 0 87 75 87 165 l0 39 38 -36 c64 -63 135 -76 177 -33 34 33 33 80 -3
134 -16 23 -42 52 -58 63 l-29 20 80 -8 c134 -14 166 -10 192 20 63 74 -21
156 -159 156 l-62 0 37 38 c42 43 62 95 47 122 -26 48 -126 40 -183 -15 l-35
-34 -5 52 c-3 41 -10 56 -36 79 -36 32 -75 36 -110 12z m77 -5 c67 -23 80
-135 29 -235 -40 -78 -48 -85 -81 -76 -39 10 -58 62 -60 162 -1 89 15 135 53
149 14 5 26 10 27 10 1 1 15 -4 32 -10z m263 -79 c26 -14 25 -59 -3 -97 -35
-47 -78 -78 -144 -106 -34 -15 -78 -36 -98 -48 -44 -26 -45 -19 -6 40 16 26
36 64 45 85 45 106 137 163 206 126z m-494 -11 c15 -5 44 -21 64 -35 31 -21
38 -32 43 -74 4 -27 13 -65 21 -84 20 -47 20 -46 -17 -35 -18 5 -57 9 -86 9
-64 0 -94 18 -127 75 -59 100 -1 183 102 144z m577 -180 c43 -12 96 -58 96
-84 0 -9 -12 -28 -26 -42 -25 -25 -29 -25 -107 -19 -45 4 -129 11 -187 15
-104 8 -140 16 -140 31 0 11 118 71 180 91 64 21 129 23 184 8z m-482 -59 c44
-12 52 -23 44 -54 -13 -53 -136 -106 -246 -107 -73 -1 -103 10 -121 42 -14 27
8 52 73 85 82 42 176 54 250 34z m98 -26 c0 -19 -5 -25 -17 -22 -22 4 -30 38
-12 49 19 11 29 2 29 -27z m25 -86 c21 -44 25 -69 25 -144 0 -113 -11 -149
-52 -163 -27 -10 -33 -8 -58 19 -33 35 -55 115 -45 162 4 18 21 66 37 106 38
91 58 96 93 20z m85 26 c93 -19 144 -51 172 -108 25 -52 19 -88 -17 -112 -52
-34 -142 9 -181 86 -31 62 -64 150 -56 150 4 0 41 -7 82 -16z m123 -425 c29
-16 37 -28 37 -62 0 -53 -49 -117 -116 -150 -35 -18 -163 -41 -172 -32 -9 9
27 104 52 142 26 38 55 62 111 92 46 24 58 25 88 10z m-545 -134 c36 -30 73
-113 74 -165 0 -21 -5 -54 -12 -74 -10 -31 -15 -36 -33 -30 -59 17 -137 132
-137 199 0 86 50 119 108 70z"/>
<path d="M2631 3314 c0 -11 3 -14 6 -6 3 7 2 16 -1 19 -3 4 -6 -2 -5 -13z"/>
<path d="M2573 2855 c0 -33 2 -45 4 -27 2 18 2 45 0 60 -2 15 -4 0 -4 -33z"/>
<path d="M2172 2395 c0 -16 2 -22 5 -12 2 9 2 23 0 30 -3 6 -5 -1 -5 -18z"/>
<path d="M2154 1375 c-28 -19 -48 -69 -40 -100 9 -33 49 -59 81 -51 30 8 65
60 65 98 0 17 -10 34 -26 47 -31 25 -52 26 -80 6z"/>
<path d="M2382 1285 l-22 -45 41 0 c34 0 39 3 35 18 -3 9 -8 29 -12 45 -3 15
-9 27 -13 27 -4 0 -17 -20 -29 -45z"/>
</g>
</svg>
