<?xml version="1.0" standalone="no"?>
<!DOCTYPE svg PUBLIC "-//W3C//DTD SVG 20010904//EN"
 "http://www.w3.org/TR/2001/REC-SVG-20010904/DTD/svg10.dtd">
<svg version="1.0" xmlns="http://www.w3.org/2000/svg"
 width="500.000000pt" height="500.000000pt" viewBox="0 0 500.000000 500.000000"
 preserveAspectRatio="xMidYMid meet">

<g transform="translate(0.000000,500.000000) scale(0.100000,-0.100000)"
fill="#000000" stroke="none">
<path d="M2416 4128 c-3 -7 -6 -77 -8 -155 -3 -109 0 -143 9 -143 9 0 13 35
15 133 l3 132 50 -72 c28 -40 53 -73 57 -73 4 0 31 29 59 65 28 36 53 65 56
65 3 0 3 -58 -1 -130 -5 -81 -4 -130 2 -130 6 0 13 7 16 16 10 26 7 294 -3
294 -8 0 -46 -45 -117 -138 -8 -11 -21 2 -62 62 -57 82 -70 94 -76 74z"/>
<path d="M2258 4115 c-6 -7 36 -293 45 -302 17 -16 16 14 -4 148 -20 136 -28
166 -41 154z"/>
<path d="M2108 4085 c-3 -3 12 -58 32 -123 21 -64 36 -119 35 -120 -2 -2 -55
39 -118 92 -106 89 -137 109 -137 88 0 -25 88 -283 96 -280 12 4 12 7 -29 135
l-35 113 28 -23 c15 -12 71 -57 123 -99 52 -43 97 -78 101 -78 12 0 6 27 -36
162 -41 131 -47 145 -60 133z"/>
<path d="M2815 3953 c-52 -71 -95 -131 -95 -135 -1 -21 24 -3 51 36 l31 44 61
-17 c66 -17 74 -28 76 -98 1 -18 6 -33 11 -33 13 0 12 41 -5 195 -8 72 -15
131 -15 133 0 1 -5 2 -10 2 -6 0 -53 -57 -105 -127z m105 10 c5 -37 7 -69 6
-71 -3 -3 -98 18 -104 23 -2 2 16 30 40 63 24 33 45 59 46 57 2 -2 8 -34 12
-72z"/>
<path d="M3124 3951 c-146 -89 -112 -290 52 -303 l39 -3 38 72 37 71 -66 37
c-48 27 -69 34 -77 26 -6 -6 -7 -11 -2 -11 6 0 34 -14 62 -30 l53 -30 -27 -55
c-24 -49 -30 -55 -59 -55 -37 0 -93 36 -112 70 -30 57 18 169 85 196 45 19 85
11 129 -28 41 -36 58 -30 23 8 -49 53 -121 68 -175 35z"/>
<path d="M1697 3923 c-3 -5 6 -75 19 -158 13 -82 24 -156 24 -162 0 -7 5 -13
11 -13 8 0 10 18 5 59 l-7 59 51 31 c28 17 54 31 59 31 4 0 25 -13 46 -30 38
-30 60 -38 53 -21 -2 8 -221 190 -248 206 -5 3 -11 2 -13 -2z m88 -85 c30 -24
54 -45 54 -48 1 -5 -80 -50 -90 -50 -4 0 -10 21 -14 48 -3 26 -9 57 -12 70 -7
31 0 28 62 -20z"/>
<path d="M3358 3701 c-88 -118 -96 -131 -79 -131 11 0 181 226 181 240 0 24
-20 3 -102 -109z"/>
<path d="M1489 3775 c-3 -2 0 -45 6 -95 13 -105 20 -100 -103 -76 -43 8 -75
10 -78 5 -3 -6 35 -54 85 -108 105 -113 117 -125 124 -114 3 5 -35 53 -85 106
-69 75 -85 97 -67 93 172 -36 163 -38 155 37 -4 34 -10 76 -13 92 -4 26 7 18
89 -69 52 -55 97 -95 101 -90 6 10 -187 224 -202 224 -4 0 -10 -2 -12 -5z"/>
<path d="M3505 3676 c-100 -49 -144 -157 -93 -231 22 -33 76 -75 96 -75 22 0
12 15 -27 39 -69 42 -89 107 -52 167 52 85 150 111 208 57 16 -16 34 -37 40
-48 18 -32 26 -10 9 23 -33 65 -120 97 -181 68z"/>
<path d="M2521 3434 c-26 -19 -51 -71 -51 -109 l0 -25 -54 31 c-71 39 -128 42
-163 6 -44 -44 -30 -130 31 -186 29 -28 33 -41 11 -41 -29 0 -123 -41 -149
-65 -54 -50 -24 -99 73 -120 53 -11 69 -10 127 6 36 10 82 27 100 38 19 11 34
19 34 18 0 -1 -9 -31 -20 -65 -11 -35 -20 -83 -20 -107 0 -39 -3 -44 -32 -56
-110 -45 -189 29 -143 135 6 13 5 17 -3 12 -22 -14 -32 -76 -17 -112 23 -57
108 -82 165 -49 48 27 51 16 19 -78 -42 -122 -60 -237 -66 -415 -5 -136 -9
-170 -18 -162 -7 6 -18 24 -25 41 -11 25 -10 39 5 89 15 50 16 66 6 106 -26
103 -76 164 -136 164 -69 0 -90 -101 -42 -197 28 -55 76 -108 107 -118 10 -3
37 -33 59 -67 39 -57 41 -65 51 -172 17 -193 32 -296 42 -296 6 0 7 7 4 15 -8
23 -34 280 -42 420 l-7 121 25 16 c14 9 51 39 82 66 51 45 61 50 121 55 122
12 219 76 246 165 9 32 8 44 -5 70 -19 36 -44 46 -93 37 -85 -16 -163 -94
-206 -207 -25 -62 -37 -80 -88 -123 -32 -27 -64 -52 -70 -54 -26 -8 14 284 56
418 l26 82 29 -31 c67 -72 139 -3 140 135 l0 39 38 -36 c48 -46 72 -58 117
-58 47 0 85 36 85 82 0 42 -35 99 -80 134 l-35 26 65 -5 c36 -4 85 -9 110 -12
35 -5 52 -2 77 14 99 62 12 171 -136 171 l-65 0 37 38 c65 67 68 129 8 150
-52 18 -115 -5 -162 -62 -15 -18 -16 -16 -21 35 -5 43 -11 58 -37 81 -36 32
-75 36 -110 12z m77 -5 c71 -25 81 -138 21 -250 -37 -68 -45 -74 -81 -60 -32
12 -53 80 -53 171 0 75 17 123 48 138 29 14 29 14 65 1z m263 -79 c43 -23 10
-105 -63 -160 -23 -16 -46 -30 -51 -30 -5 0 -44 -18 -88 -40 -43 -22 -79 -37
-79 -34 0 3 18 35 40 71 22 37 40 72 40 78 0 23 58 92 91 108 39 19 82 22 110
7z m-494 -11 c15 -5 44 -21 64 -35 32 -22 37 -32 43 -76 4 -28 14 -67 22 -86
17 -42 15 -46 -20 -32 -15 5 -53 10 -84 10 -44 1 -63 6 -83 23 -117 97 -73
246 58 196z m610 -193 c47 -24 69 -60 55 -92 -20 -43 -51 -49 -171 -36 -59 7
-132 12 -162 12 -57 0 -119 16 -119 30 0 11 117 71 180 92 66 22 169 19 217
-6z m-507 -49 c107 -36 -21 -145 -182 -155 -94 -6 -123 1 -144 34 -16 24 -16
26 6 49 62 66 227 104 320 72z m90 -23 c0 -19 -5 -25 -17 -22 -22 4 -30 38
-12 49 19 11 29 2 29 -27z m24 -79 c15 -29 22 -63 25 -128 5 -143 -11 -187
-69 -187 -36 0 -65 39 -82 108 -10 45 -9 59 10 114 38 117 51 140 74 136 13
-2 29 -19 42 -43z m108 16 c65 -11 124 -52 150 -105 50 -103 -40 -163 -142
-93 -34 23 -63 71 -99 166 l-20 53 32 -6 c18 -4 53 -11 79 -15z m101 -422 c29
-16 37 -28 37 -62 0 -90 -99 -163 -252 -183 l-49 -7 22 59 c34 90 70 136 136
172 65 35 75 37 106 21z m-548 -131 c60 -47 91 -168 64 -247 -9 -26 -15 -30
-33 -25 -61 18 -136 132 -136 206 0 81 48 111 105 66z"/>
<path d="M2631 3314 c0 -11 3 -14 6 -6 3 7 2 16 -1 19 -3 4 -6 -2 -5 -13z"/>
<path d="M2573 2860 c0 -30 2 -43 4 -27 2 15 2 39 0 55 -2 15 -4 2 -4 -28z"/>
<path d="M2172 2395 c0 -16 2 -22 5 -12 2 9 2 23 0 30 -3 6 -5 -1 -5 -18z"/>
<path d="M1315 3378 c-146 -203 -241 -436 -276 -677 -17 -119 -6 -378 21 -506
56 -264 186 -507 379 -707 214 -224 465 -363 761 -424 140 -29 403 -33 541 -9
602 105 1073 560 1195 1155 19 93 24 146 24 275 0 255 -40 443 -140 651 -47
98 -158 274 -172 274 -16 0 -6 -21 46 -97 245 -357 315 -829 184 -1243 -142
-450 -503 -809 -953 -949 -142 -45 -257 -61 -430 -61 -179 0 -295 17 -441 65
-206 68 -394 179 -547 325 -229 217 -372 478 -434 786 -25 127 -25 427 0 544
41 193 114 365 220 524 37 55 67 103 67 108 0 18 -16 6 -45 -34z"/>
<path d="M2820 1407 c-18 -9 -26 -22 -28 -47 -4 -43 17 -60 74 -60 35 0 44 -4
50 -22 13 -41 -51 -64 -88 -31 -25 22 -36 8 -13 -17 31 -35 110 -18 121 26 10
39 -12 64 -56 64 -54 0 -70 8 -70 36 0 35 43 54 69 30 11 -10 21 -13 25 -7 7
10 -30 41 -49 41 -5 0 -21 -6 -35 -13z"/>
<path d="M2129 1382 c-65 -58 -44 -163 35 -178 42 -7 71 7 96 49 29 47 26 93
-9 128 -39 38 -80 39 -122 1z m106 -17 c30 -29 32 -59 5 -102 -50 -83 -157
-23 -120 68 25 60 75 75 115 34z"/>
<path d="M2703 1359 c3 -13 11 -53 17 -89 13 -80 18 -93 29 -86 13 8 -22 189
-38 194 -10 3 -12 -2 -8 -19z"/>
<path d="M2358 1281 c-27 -49 -48 -94 -48 -100 0 -20 17 -12 28 14 10 22 18
25 62 25 48 0 51 -1 57 -30 3 -16 11 -30 18 -30 15 0 -44 201 -60 207 -6 1
-31 -37 -57 -86z m66 22 c4 -16 9 -36 12 -45 4 -15 -1 -18 -30 -18 -41 0 -43
5 -19 55 20 42 29 44 37 8z"/>
<path d="M2556 1354 c-19 -18 -21 -70 -4 -81 7 -4 31 -13 53 -18 33 -9 40 -15
40 -35 0 -18 -8 -27 -27 -34 -23 -8 -32 -6 -53 14 -26 25 -40 24 -30 -3 9 -22
57 -39 88 -32 35 9 49 28 45 62 -3 24 -10 30 -53 44 -45 14 -50 19 -50 45 0
25 4 29 33 32 22 2 34 -2 38 -12 7 -17 24 -22 24 -7 0 19 -32 41 -60 41 -16 0
-36 -7 -44 -16z"/>
</g>
</svg>
