<?xml version="1.0" standalone="no"?>
<!DOCTYPE svg PUBLIC "-//W3C//DTD SVG 20010904//EN"
 "http://www.w3.org/TR/2001/REC-SVG-20010904/DTD/svg10.dtd">
<svg version="1.0" xmlns="http://www.w3.org/2000/svg"
 width="500.000000pt" height="115.000000pt" viewBox="0 0 500.000000 115.000000"
 preserveAspectRatio="xMidYMid meet">

<g transform="translate(0.000000,115.000000) scale(0.100000,-0.100000)"
fill="#000000" stroke="none">
<path d="M3125 990 c-3 -6 1 -7 9 -4 18 7 21 14 7 14 -6 0 -13 -4 -16 -10z"/>
<path d="M3113 925 c0 -27 2 -38 4 -22 2 15 2 37 0 50 -2 12 -4 0 -4 -28z"/>
<path d="M3193 943 c0 -17 -10 -48 -22 -68 -26 -44 -27 -65 -3 -65 10 0 13 3
7 8 -15 10 -13 20 17 80 15 28 22 50 18 47 -5 -3 -10 3 -13 12 -2 10 -4 4 -4
-14z"/>
<path d="M3258 963 c7 -3 16 -2 19 1 4 3 -2 6 -13 5 -11 0 -14 -3 -6 -6z"/>
<path d="M3247 878 c-7 -4 9 -8 36 -8 26 0 47 2 47 4 0 8 -71 12 -83 4z"/>
<path d="M3340 866 c0 -2 8 -10 18 -17 15 -13 16 -12 3 4 -13 16 -21 21 -21
13z"/>
<path d="M3048 853 c7 -3 16 -2 19 1 4 3 -2 6 -13 5 -11 0 -14 -3 -6 -6z"/>
<path d="M3108 843 c6 -2 18 -2 25 0 6 3 1 5 -13 5 -14 0 -19 -2 -12 -5z"/>
<path d="M2962 818 c-15 -15 -16 -35 -2 -43 6 -3 7 1 4 10 -4 8 -1 22 6 30 15
18 9 20 -8 3z"/>
<path d="M3124 819 c-3 -6 -20 -20 -38 -31 -17 -11 -22 -17 -11 -13 11 4 25 8
32 8 6 0 16 11 22 24 11 23 8 32 -5 12z"/>
<path d="M370 655 c0 -192 18 -212 22 -25 l3 131 53 -71 c30 -40 55 -70 57
-68 2 1 26 34 54 73 l51 70 0 -133 c0 -111 2 -132 15 -132 13 0 15 24 15 155
0 120 -3 155 -13 155 -7 0 -37 -34 -66 -75 -30 -41 -57 -75 -60 -75 -3 0 -30
34 -59 75 -29 41 -57 75 -63 75 -5 0 -9 -64 -9 -155z"/>
<path d="M757 661 c-61 -159 -63 -165 -46 -159 7 2 19 24 28 48 l17 45 69 0
69 0 17 -45 c14 -38 39 -66 39 -44 0 22 -116 304 -125 304 -6 0 -37 -67 -68
-149z m98 36 l25 -67 -55 0 -55 0 25 66 c14 37 25 69 25 72 0 14 12 -10 35
-71z"/>
<path d="M1010 655 c0 -130 2 -155 15 -155 12 0 15 23 17 127 l3 127 82 -127
c45 -70 87 -127 93 -127 6 0 10 55 10 155 0 193 -18 212 -22 23 l-3 -132 -85
132 c-47 73 -91 132 -97 132 -10 0 -13 -38 -13 -155z"/>
<path d="M1330 655 c0 -97 4 -155 10 -155 6 0 10 58 10 155 0 97 -4 155 -10
155 -6 0 -10 -58 -10 -155z"/>
<path d="M1450 655 c0 -193 18 -212 22 -23 l3 132 53 -72 c30 -40 55 -72 57
-72 1 0 27 33 56 73 l54 72 3 -132 c4 -190 22 -171 22 22 0 175 -5 184 -57
107 -18 -26 -43 -60 -56 -76 l-24 -29 -56 76 c-32 43 -62 77 -67 77 -6 0 -10
-59 -10 -155z"/>
<path d="M1841 667 c-30 -78 -56 -148 -59 -156 -3 -9 0 -12 9 -9 8 3 21 25 30
49 l17 44 69 3 69 3 18 -51 c10 -27 24 -50 31 -50 10 0 8 15 -9 58 -13 31 -40
101 -61 155 -20 53 -42 97 -49 97 -6 0 -35 -64 -65 -143z m113 -14 c7 -22 5
-23 -47 -23 l-55 0 27 71 26 70 21 -48 c12 -26 24 -58 28 -70z"/>
<path d="M2160 803 c-24 -9 -51 -36 -67 -66 -20 -39 -18 -128 3 -173 32 -67
126 -90 209 -52 25 11 26 14 23 92 l-3 81 -77 3 c-49 2 -78 -1 -78 -8 0 -6 27
-10 65 -10 l65 0 0 -69 c0 -63 -2 -70 -22 -77 -34 -11 -92 -8 -117 5 -79 43
-80 209 -1 248 30 15 89 17 124 3 31 -11 36 4 7 20 -20 10 -105 13 -131 3z"/>
<path d="M2410 655 c0 -131 2 -155 15 -155 13 0 15 24 15 155 0 131 -2 155
-15 155 -13 0 -15 -24 -15 -155z"/>
<path d="M2560 773 c-110 -111 -19 -310 127 -277 56 12 63 16 63 30 0 12 -4
13 -22 3 -11 -6 -43 -12 -71 -12 -45 -1 -53 3 -84 37 -34 37 -35 40 -31 108 3
65 6 73 37 100 31 28 38 30 93 26 38 -3 57 -1 55 6 -2 6 -32 12 -66 14 -61 3
-63 2 -101 -35z"/>
<path d="M3192 804 c8 -7 88 -8 95 0 4 3 -18 6 -47 6 -29 0 -51 -3 -48 -6z"/>
<path d="M3561 764 c-70 -59 -62 -198 15 -232 49 -23 101 -15 140 21 31 28 37
41 42 85 9 96 -35 152 -119 152 -36 0 -55 -6 -78 -26z m140 -23 c57 -57 29
-176 -46 -195 -42 -11 -91 17 -105 59 -38 115 72 214 151 136z"/>
<path d="M3875 678 c-68 -163 -67 -158 -50 -158 8 0 21 16 29 35 15 35 15 35
80 35 l65 0 12 -35 c7 -19 19 -35 26 -35 7 0 13 3 13 8 0 24 -104 262 -115
262 -7 0 -34 -51 -60 -112z m88 5 l26 -63 -55 0 -54 0 21 53 c12 28 23 58 26
65 7 17 7 17 36 -55z"/>
<path d="M4139 771 c-17 -13 -23 -29 -23 -56 0 -44 18 -61 81 -77 55 -13 70
-31 55 -63 -6 -13 -22 -27 -35 -30 -32 -8 -78 11 -84 35 -6 23 -33 27 -33 5 0
-9 11 -27 25 -40 34 -35 106 -35 140 0 45 44 23 97 -48 116 -74 19 -94 52 -57
89 27 27 56 25 84 -5 27 -29 36 -31 36 -10 0 49 -95 74 -141 36z"/>
<path d="M4360 655 c0 -113 2 -135 15 -135 13 0 15 22 15 135 0 113 -2 135
-15 135 -13 0 -15 -22 -15 -135z"/>
<path d="M4492 767 c-27 -28 -29 -78 -4 -100 9 -8 36 -20 58 -26 50 -13 68
-33 60 -65 -11 -45 -107 -41 -121 5 -6 17 -35 28 -35 14 0 -16 31 -63 45 -69
63 -24 145 12 145 62 0 41 -13 54 -77 76 -53 19 -58 24 -61 53 -3 27 1 35 22
44 32 15 73 4 81 -21 3 -11 13 -20 21 -20 19 0 18 13 -7 44 -28 35 -95 37
-127 3z"/>
<path d="M3170 730 c0 -29 2 -51 5 -48 8 7 9 87 2 95 -4 3 -7 -18 -7 -47z"/>
<path d="M3003 763 c9 -2 25 -2 35 0 9 3 1 5 -18 5 -19 0 -27 -2 -17 -5z"/>
<path d="M3282 730 c0 -14 2 -19 5 -12 2 6 2 18 0 25 -3 6 -5 1 -5 -13z"/>
<path d="M3001 724 c0 -11 3 -14 6 -6 3 7 2 16 -1 19 -3 4 -6 -2 -5 -13z"/>
<path d="M3100 681 c15 -30 30 -35 17 -6 -7 14 -16 25 -20 25 -4 0 -3 -9 3
-19z"/>
<path d="M3268 593 c5 -21 7 -23 10 -9 2 10 0 22 -6 28 -6 6 -7 0 -4 -19z"/>
<path d="M3169 583 c-13 -16 -12 -17 4 -4 16 13 21 21 13 21 -2 0 -10 -8 -17
-17z"/>
<path d="M3071 574 c0 -11 3 -14 6 -6 3 7 2 16 -1 19 -3 4 -6 -2 -5 -13z"/>
<path d="M2966 561 c-4 -5 3 -7 14 -4 23 6 26 13 6 13 -8 0 -17 -4 -20 -9z"/>
<path d="M3026 527 c3 -10 9 -15 12 -12 3 3 0 11 -7 18 -10 9 -11 8 -5 -6z"/>
<path d="M3062 481 c-2 -54 -2 -54 18 -36 23 21 28 34 6 16 -12 -11 -15 -5
-19 31 -3 41 -4 40 -5 -11z"/>
<path d="M2960 491 c0 -6 4 -13 10 -16 6 -3 7 1 4 9 -7 18 -14 21 -14 7z"/>
<path d="M3042 475 c0 -16 2 -22 5 -12 2 9 2 23 0 30 -3 6 -5 -1 -5 -18z"/>
<path d="M2980 456 c0 -3 14 -14 30 -26 27 -19 30 -20 30 -4 0 10 -3 14 -7 11
-3 -4 -17 0 -30 8 -13 9 -23 13 -23 11z"/>
<path d="M3049 386 c5 -6 11 -27 14 -46 3 -31 4 -30 5 11 2 34 -2 46 -13 46
-9 0 -11 -4 -6 -11z"/>
<path d="M3072 245 c0 -16 2 -22 5 -12 2 9 2 23 0 30 -3 6 -5 -1 -5 -18z"/>
</g>
</svg>
